<?xml version="1.0" encoding="utf-8"?>
<!-- Generator: Adobe Illustrator 26.2.1, SVG Export Plug-In . SVG Version: 6.00 Build 0)  -->
<svg version="1.1" id="Layer_1" xmlns="http://www.w3.org/2000/svg" xmlns:xlink="http://www.w3.org/1999/xlink" x="0px" y="0px"
	 viewBox="0 0 256 256" style="enable-background:new 0 0 256 256;" xml:space="preserve">
<path d="M127.9,23c34.2,0,38.2,0.1,51.7,0.7c12.5,0.6,19.3,2.7,23.8,4.4c6,2.3,10.2,5.1,14.7,9.6s7.3,8.7,9.6,14.7
	c1.8,4.5,3.8,11.3,4.4,23.8c0.6,13.5,0.7,17.5,0.7,51.7s-0.1,38.2-0.7,51.7c-0.6,12.5-2.7,19.3-4.4,23.8c-2.3,6-5.1,10.2-9.6,14.7
	s-8.7,7.3-14.7,9.6c-4.5,1.8-11.3,3.8-23.8,4.4c-13.5,0.6-17.5,0.7-51.7,0.7s-38.2-0.1-51.7-0.7c-12.5-0.6-19.3-2.7-23.8-4.4
	c-6-2.3-10.2-5.1-14.7-9.6s-7.3-8.7-9.6-14.7c-1.8-4.5-3.8-11.3-4.4-23.8c-0.6-13.5-0.7-17.5-0.7-51.7s0.1-38.2,0.7-51.7
	c0.6-12.5,2.7-19.3,4.4-23.8c2.3-6,5.1-10.2,9.6-14.7s8.7-7.3,14.7-9.6c4.5-1.8,11.3-3.8,23.8-4.4C89.7,23.1,93.7,23,127.9,23
	 M127.9-0.1C93.1-0.1,88.8,0,75.1,0.7c-13.6,0.6-22.9,2.8-31,5.9c-8.4,3.3-15.6,7.6-22.7,14.8S9.9,35.6,6.6,44.1
	c-3.2,8.1-5.3,17.4-5.9,31.1C0,88.8-0.1,93.1-0.1,127.9s0.1,39.1,0.8,52.8c0.6,13.6,2.8,22.9,5.9,31.1c3.3,8.4,7.6,15.6,14.8,22.7
	c7.1,7.1,14.3,11.5,22.7,14.8c8.1,3.2,17.4,5.3,31.1,5.9c13.7,0.6,18,0.8,52.8,0.8s39.1-0.1,52.8-0.8c13.6-0.6,22.9-2.8,31.1-5.9
	c8.4-3.3,15.6-7.6,22.7-14.8c7.1-7.1,11.5-14.3,14.8-22.7c3.2-8.1,5.3-17.4,5.9-31.1c0.6-13.7,0.8-18,0.8-52.8s-0.1-39.1-0.8-52.8
	c-0.6-13.6-2.8-22.9-5.9-31.1c-3.3-8.4-7.6-15.6-14.8-22.7S220.2,9.9,211.7,6.6c-8.1-3.2-17.4-5.3-31.1-5.9
	C167,0,162.7-0.1,127.9-0.1z M127.9,62.2c-36.3,0-65.7,29.4-65.7,65.7s29.4,65.7,65.7,65.7s65.7-29.4,65.7-65.7
	S164.2,62.2,127.9,62.2z M127.9,170.6c-23.6,0-42.7-19.1-42.7-42.7s19.1-42.7,42.7-42.7s42.7,19.1,42.7,42.7
	S151.5,170.6,127.9,170.6z M211.6,59.6c0,8.5-6.9,15.4-15.4,15.4s-15.3-6.9-15.3-15.4s6.9-15.4,15.4-15.4S211.6,51.1,211.6,59.6z"/>
</svg>
